# xmcd
#
# Track frame offsets:
#	150
#	17333
#	33105
#	48629
#	64551
#	75633
#	92532
#	105799
#	123403
#	137026
#	157815
#	173594
#	190003
#	206429
#	229314
#	246274
#	259508
#	275097
#	292690
#	304241
#
# Disc length: 4183 seconds
#
# Revision: 0
# Processed by: cddbd v1.5.1PL0 Copyright (c) Steve Scherf et al.
# Submitted via: dBpowerAMP V4.0
#
DISCID=f8105514
DTITLE=Leonardo favio - The Millenium Collection
DYEAR=1900
DGENRE=Ballad
TTITLE0=Ella ya me olvido
TTITLE1=Quiero aprender de memoria
TTITLE2=O quizás simplemente le regale una rosa
TTITLE3=Ni le clavel ni la rosa
TTITLE4=No juegues más
TTITLE5=Amanecer y la espera
TTITLE6=Para saber como es la verdad
TTITLE7=No ser Dios y cuidarlos
TTITLE8=Fuiste mía un verano
TTITLE9=La cita
TTITLE10=De pronto sucedió
TTITLE11=Ding, dong las cosas del amor
TTITLE12=Tal vez una ocasión
TTITLE13=Así es Carolita
TTITLE14=Lo mismo que tú
TTITLE15=Anny
TTITLE16=La foto de carnet
TTITLE17=La subienda
TTITLE18=Mi amante niña, mi compañera
TTITLE19=Mi tristeza es mía, nada más
EXTD=
EXTT0=
EXTT1=
EXTT2=
EXTT3=
EXTT4=
EXTT5=
EXTT6=
EXTT7=
EXTT8=
EXTT9=
EXTT10=
EXTT11=
EXTT12=
EXTT13=
EXTT14=
EXTT15=
EXTT16=
EXTT17=
EXTT18=
EXTT19=
PLAYORDER=
